<svg xmlns="http://www.w3.org/2000/svg" xmlns:xlink="http://www.w3.org/1999/xlink" id="svg" version="1.1" width="400" height="392.3076923076923" viewBox="0, 0, 400,392.3076923076923"><g id="svgg"><path id="path0" d="M0.000 196.271 L 0.000 392.542 200.000 392.542 L 400.000 392.542 400.000 196.271 L 400.000 0.000 200.000 0.000 L 0.000 0.000 0.000 196.271 M376.826 16.068 C 377.540 17.403,377.379 385.935,376.664 387.648 L 376.095 389.009 192.376 389.009 L 8.656 389.009 8.057 387.851 C 7.256 386.302,7.129 16.580,7.929 15.780 C 8.870 14.839,376.322 15.126,376.826 16.068 M255.111 159.103 C 247.277 160.872,248.733 165.094,257.077 164.807 C 262.268 164.628,263.915 163.885,264.105 161.634 C 264.321 159.072,260.283 157.935,255.111 159.103 M120.510 174.662 C 115.513 175.802,111.482 177.564,111.482 178.608 C 111.482 178.758,112.008 179.608,112.651 180.496 L 113.821 182.110 115.352 181.570 C 116.194 181.273,117.919 180.911,119.187 180.765 C 124.602 180.141,126.398 179.112,126.398 176.636 C 126.398 173.902,125.364 173.555,120.510 174.662 " stroke="none" fill="#f5f5f6" fill-rule="evenodd"/><path id="path1" d="M201.503 111.875 C 201.034 112.064,199.930 113.280,199.050 114.577 L 197.448 116.934 197.466 121.176 C 197.484 125.625,197.872 128.549,198.532 129.210 C 199.296 129.974,203.615 127.288,206.650 124.163 C 209.206 121.530,212.518 119.563,215.113 119.137 C 219.192 118.468,220.562 116.971,218.184 115.781 C 217.251 115.314,215.868 114.360,215.113 113.661 C 213.107 111.806,204.482 110.674,201.503 111.875 M231.714 123.995 C 231.517 124.130,230.716 125.535,229.933 127.119 L 228.510 129.998 229.662 132.876 C 230.296 134.459,230.815 136.095,230.815 136.511 C 230.815 137.365,231.791 138.354,232.994 138.719 C 234.199 139.085,238.032 142.903,238.612 144.315 C 238.992 145.241,239.578 145.723,240.953 146.241 C 241.962 146.621,243.743 147.611,244.912 148.442 C 247.455 150.248,247.285 150.237,250.301 148.810 C 253.336 147.374,253.882 146.172,253.162 142.513 L 252.695 140.138 250.052 138.710 C 247.676 137.427,247.267 137.020,246.005 134.684 C 244.733 132.329,244.379 131.981,242.211 130.951 C 240.250 130.020,239.592 129.444,238.556 127.755 C 237.002 125.222,233.077 123.066,231.714 123.995 M213.898 128.259 C 212.515 129.313,210.677 130.451,209.814 130.787 C 208.823 131.172,208.026 131.827,207.655 132.560 C 206.832 134.182,203.340 138.121,202.482 138.393 C 200.695 138.960,200.586 139.439,200.635 146.544 C 200.696 155.424,200.633 155.207,203.702 157.062 C 207.276 159.221,212.627 158.387,214.803 155.331 C 215.253 154.698,216.242 153.921,216.999 153.605 C 222.265 151.404,223.294 148.928,223.410 138.175 C 223.520 127.859,223.270 127.279,218.412 126.615 C 216.458 126.348,216.354 126.386,213.898 128.259 M226.991 154.510 C 225.260 155.141,224.451 155.970,222.581 159.031 C 221.641 160.569,221.097 160.991,219.045 161.778 C 216.811 162.635,216.539 162.873,215.593 164.796 C 214.361 167.302,212.554 168.980,210.388 169.629 C 209.006 170.043,208.655 170.393,207.788 172.226 C 207.237 173.392,206.544 174.438,206.248 174.552 C 205.952 174.665,205.064 175.658,204.274 176.757 L 202.838 178.756 203.051 182.334 C 203.537 190.472,205.212 192.031,213.543 192.091 C 221.925 192.152,222.274 191.857,223.684 183.516 C 224.458 178.944,224.524 178.770,225.979 177.492 C 226.804 176.769,227.905 175.796,228.427 175.331 C 228.948 174.866,229.868 173.401,230.471 172.076 C 231.074 170.751,232.006 169.338,232.543 168.936 C 234.747 167.282,234.724 155.709,232.514 154.702 C 230.877 153.956,228.716 153.881,226.991 154.510 M246.048 154.602 C 244.538 155.357,243.389 158.727,243.430 162.274 C 243.485 166.881,242.376 169.578,240.427 169.578 C 238.610 169.578,237.444 175.357,238.836 177.460 C 239.780 178.887,239.893 178.937,242.820 179.211 C 247.225 179.624,247.481 179.970,247.151 185.070 C 247.009 187.270,246.741 189.597,246.557 190.242 C 245.848 192.713,246.730 201.691,247.596 200.814 C 248.068 200.336,247.835 180.505,247.296 175.214 C 246.615 168.535,247.406 167.157,252.909 165.437 C 254.162 165.045,254.325 164.913,253.582 164.892 C 247.639 164.724,249.813 160.002,256.329 158.926 L 259.155 158.459 257.644 157.729 C 256.813 157.327,255.640 156.474,255.037 155.833 C 253.834 154.555,253.362 154.402,249.776 154.136 C 248.008 154.004,246.990 154.132,246.048 154.602 M263.308 159.590 C 264.812 160.644,264.514 162.734,262.709 163.801 C 261.245 164.666,261.243 164.672,262.286 164.793 C 264.579 165.058,265.952 167.612,266.359 172.374 C 266.537 174.449,267.025 176.825,267.940 180.072 C 268.017 180.345,268.358 180.448,268.723 180.308 C 269.303 180.085,269.343 179.334,269.117 172.954 C 268.745 162.480,268.698 162.213,267.086 161.540 C 266.352 161.233,265.160 160.532,264.438 159.981 C 263.716 159.430,262.970 158.979,262.780 158.979 C 262.591 158.979,262.828 159.254,263.308 159.590 M126.254 173.452 L 124.737 173.700 125.568 174.447 C 126.675 175.444,126.681 177.666,125.580 178.838 C 124.641 179.838,124.716 179.888,127.912 180.386 C 130.950 180.859,130.950 180.860,131.285 191.009 C 131.448 195.954,131.710 200.795,131.868 201.766 L 132.154 203.533 133.005 201.636 C 134.585 198.117,133.885 182.692,131.935 178.018 C 131.754 177.586,131.269 176.349,130.857 175.270 C 130.034 173.119,129.528 172.919,126.254 173.452 M110.818 177.800 C 109.437 178.428,109.122 178.788,108.856 180.049 C 108.522 181.626,108.614 191.571,108.965 191.923 C 109.392 192.349,109.877 190.901,110.134 188.433 C 110.471 185.199,110.737 184.707,112.592 183.888 C 114.254 183.155,115.589 181.609,114.374 181.824 C 113.083 182.053,111.194 178.790,112.063 177.830 C 112.937 176.864,112.884 176.862,110.818 177.800 M269.545 180.438 C 268.925 181.059,269.464 204.924,270.292 213.492 C 270.510 215.742,270.595 215.933,271.137 215.390 C 272.869 213.658,273.128 190.884,271.489 184.495 C 271.184 183.307,270.825 181.850,270.690 181.256 C 270.451 180.196,270.064 179.920,269.545 180.438 M280.659 189.133 C 277.805 190.196,277.906 189.976,278.153 194.623 C 278.277 196.932,278.548 199.352,278.755 200.000 C 278.963 200.648,279.295 202.436,279.492 203.974 C 280.250 209.886,282.361 211.594,285.349 208.713 L 287.429 206.708 287.145 200.274 C 286.898 194.680,286.751 193.663,286.021 192.494 C 283.195 187.968,283.415 188.106,280.659 189.133 M230.305 190.314 C 229.351 191.140,227.485 192.221,226.159 192.717 L 223.749 193.619 223.749 196.327 C 223.749 199.773,223.991 199.670,214.720 200.183 C 205.788 200.678,202.535 201.155,200.000 202.344 C 198.616 202.993,196.416 203.459,192.542 203.924 C 180.283 205.395,177.166 206.121,177.654 207.393 C 177.964 208.201,177.446 208.187,202.355 208.073 C 218.325 208.000,221.856 208.081,223.160 208.553 L 224.730 209.122 224.618 211.679 L 224.506 214.235 225.796 214.456 C 234.957 216.027,242.695 214.203,245.585 209.792 C 246.360 208.609,246.218 203.095,245.400 202.589 C 244.652 202.127,244.186 199.665,244.131 195.878 C 244.043 189.789,242.930 188.813,236.076 188.813 L 232.040 188.813 230.305 190.314 M113.398 200.843 C 111.611 202.895,111.832 214.705,113.780 221.197 C 114.514 223.646,114.819 220.818,114.751 212.169 C 114.672 202.145,114.381 199.714,113.398 200.843 M165.554 209.124 C 167.336 209.197,170.250 209.197,172.031 209.124 C 173.813 209.051,172.355 208.992,168.793 208.992 C 165.231 208.992,163.773 209.051,165.554 209.124 M136.766 210.599 C 136.082 213.653,136.643 224.757,137.381 222.767 C 138.006 221.083,138.124 216.336,137.631 212.758 C 137.138 209.179,137.103 209.092,136.766 210.599 M251.798 214.917 C 250.771 217.106,250.724 233.432,251.728 238.862 C 252.088 240.805,252.664 244.140,253.009 246.273 C 253.354 248.407,253.849 250.791,254.110 251.573 L 254.584 252.993 257.125 252.885 C 258.523 252.825,260.461 252.447,261.433 252.043 C 262.404 251.640,264.171 251.186,265.358 251.034 C 269.302 250.531,271.289 249.657,273.700 247.365 L 275.957 245.219 275.910 236.152 C 275.843 223.080,275.318 221.233,274.817 232.307 C 274.499 239.341,274.184 240.533,272.404 241.449 C 266.476 244.498,261.345 245.191,256.803 243.558 C 255.140 242.960,253.717 242.422,253.643 242.363 C 253.569 242.304,253.436 236.811,253.349 230.156 C 253.262 223.502,253.043 216.997,252.863 215.702 L 252.535 213.346 251.798 214.917 M100.616 216.342 C 100.124 216.942,99.339 221.569,99.566 222.537 C 99.646 222.880,99.859 224.844,100.039 226.903 C 100.473 231.852,100.900 232.637,103.796 233.804 C 107.846 235.436,108.226 234.668,107.380 226.564 C 107.045 223.357,106.771 220.033,106.771 219.176 C 106.771 218.319,106.551 217.320,106.281 216.956 C 105.610 216.050,101.244 215.577,100.616 216.342 M200.393 216.667 C 199.087 217.203,201.365 217.861,204.524 217.861 C 208.385 217.861,213.753 217.011,212.169 216.651 C 210.493 216.270,201.331 216.283,200.393 216.667 M181.551 221.169 C 181.335 221.257,180.451 221.468,179.588 221.638 C 178.084 221.934,178.133 221.956,180.765 222.162 C 184.447 222.449,190.841 222.091,189.794 221.656 C 188.946 221.304,182.196 220.905,181.551 221.169 M115.968 226.388 C 115.647 228.961,116.010 237.711,116.492 239.015 C 117.054 240.535,118.184 238.779,118.436 235.994 C 118.660 233.521,117.185 224.141,116.572 224.141 C 116.394 224.141,116.123 225.152,115.968 226.388 M139.598 240.677 C 139.235 242.488,139.310 245.059,139.745 245.731 C 140.007 246.136,140.127 245.248,140.131 242.885 C 140.138 239.250,139.998 238.673,139.598 240.677 M120.932 246.625 C 120.470 248.025,120.896 253.756,121.594 255.545 C 122.168 257.014,122.635 252.361,122.286 248.642 C 121.979 245.359,121.557 244.731,120.932 246.625 M143.042 255.141 C 141.841 256.956,138.055 260.191,136.847 260.433 C 132.950 261.216,128.406 261.422,126.305 260.909 C 122.427 259.964,121.850 264.136,125.424 267.275 C 127.645 269.224,135.339 269.282,138.596 267.373 C 139.336 266.939,141.107 266.384,142.532 266.138 C 146.190 265.506,146.529 264.754,145.842 258.796 C 145.164 252.913,144.816 252.460,143.042 255.141 " stroke="none" fill="#c68e27" fill-rule="evenodd"/><path id="path2" d="M7.929 15.780 C 7.129 16.580,7.256 386.302,8.057 387.851 L 8.656 389.009 192.376 389.009 L 376.095 389.009 376.664 387.648 C 377.379 385.935,377.540 17.403,376.826 16.068 C 376.322 15.126,8.870 14.839,7.929 15.780 M375.976 16.173 C 376.597 16.793,376.670 385.897,376.050 387.055 C 375.498 388.088,9.280 388.078,8.628 387.046 C 8.013 386.074,8.119 16.210,8.734 15.962 C 9.904 15.489,375.503 15.700,375.976 16.173 M174.289 110.900 C 172.453 111.182,170.761 111.429,170.527 111.448 C 170.293 111.466,169.378 112.144,168.494 112.954 C 167.610 113.763,166.035 114.762,164.994 115.173 C 160.422 116.979,161.588 118.727,168.008 119.694 C 169.810 119.966,171.332 120.441,171.933 120.921 C 172.473 121.351,173.671 122.050,174.597 122.473 C 175.648 122.954,176.531 123.720,176.952 124.517 C 177.322 125.218,178.127 126.237,178.739 126.782 C 179.352 127.327,180.462 128.346,181.206 129.048 C 182.634 130.396,183.897 130.651,185.030 129.823 C 186.900 128.455,187.098 118.046,185.324 114.384 C 183.758 111.153,183.918 111.244,178.606 110.521 C 178.067 110.448,176.124 110.618,174.289 110.900 M148.270 123.933 C 147.538 124.044,146.878 124.574,146.265 125.544 C 145.154 127.304,142.424 129.749,140.437 130.763 C 139.489 131.247,138.672 132.098,138.125 133.169 C 136.944 135.483,135.144 137.316,133.072 138.312 C 129.959 139.808,129.443 148.424,132.400 149.518 C 135.252 150.574,137.244 150.411,139.017 148.977 C 139.957 148.217,141.792 147.089,143.096 146.472 C 145.032 145.554,145.594 145.062,146.174 143.777 C 147.029 141.881,149.049 139.896,151.474 138.567 C 154.466 136.929,155.735 131.547,154.248 126.805 C 153.225 123.541,152.663 123.270,148.270 123.933 M164.789 126.017 C 162.363 126.426,162.337 126.447,161.313 128.918 C 160.502 130.876,160.295 131.080,158.718 131.477 L 157.004 131.909 157.782 132.981 C 158.880 134.495,159.351 136.995,159.362 141.365 C 159.369 144.079,159.524 145.270,159.910 145.591 C 160.207 145.837,160.820 147.056,161.274 148.300 C 162.291 151.091,163.998 152.788,166.856 153.851 C 168.548 154.481,169.179 154.951,169.654 155.938 C 171.313 159.392,177.257 159.984,181.377 157.106 C 183.992 155.279,183.996 155.264,184.056 146.543 L 184.102 139.798 182.826 138.926 C 180.649 137.437,177.794 134.515,176.981 132.944 C 176.460 131.935,175.729 131.245,174.756 130.843 C 173.959 130.514,172.130 129.202,170.691 127.929 C 167.988 125.536,167.868 125.498,164.789 126.017 M130.128 154.118 C 127.727 154.714,127.201 155.174,125.978 157.744 C 124.132 161.625,123.998 162.553,124.855 165.551 C 125.570 168.052,127.170 170.363,128.185 170.363 C 129.016 170.363,130.722 171.976,131.497 173.494 C 133.685 177.784,138.308 180.754,142.191 180.364 L 144.931 180.089 145.721 178.302 C 147.118 175.144,146.153 170.671,143.797 169.382 C 142.118 168.463,142.071 168.380,140.909 164.279 C 139.040 157.686,138.134 154.856,137.777 154.499 C 137.375 154.098,131.406 153.800,130.128 154.118 M150.685 154.538 C 148.211 156.074,148.630 167.518,151.244 169.777 C 152.136 170.549,153.005 171.906,153.669 173.563 C 154.463 175.547,155.040 176.364,156.154 177.085 C 157.445 177.919,157.699 178.369,158.453 181.160 C 158.919 182.886,159.997 185.976,160.848 188.027 L 162.397 191.757 165.104 192.074 C 169.623 192.605,177.091 192.265,178.297 191.475 C 179.947 190.393,181.059 186.945,181.265 182.267 L 181.441 178.273 179.693 176.379 C 178.731 175.337,177.440 173.575,176.824 172.462 C 175.867 170.735,175.327 170.257,173.131 169.190 C 170.840 168.076,170.410 167.676,169.185 165.520 C 167.951 163.346,167.544 162.972,165.172 161.830 C 163.052 160.809,162.377 160.254,161.742 159.008 C 159.540 154.693,154.027 152.464,150.685 154.538 M259.666 158.194 C 259.533 158.410,259.685 158.587,260.004 158.587 C 260.323 158.587,260.907 158.690,261.303 158.815 C 261.961 159.024,261.957 158.991,261.260 158.423 C 260.375 157.702,260.004 157.649,259.666 158.194 M257.396 164.767 C 253.523 164.937,253.751 165.653,257.679 165.653 C 259.753 165.653,260.687 165.489,261.040 165.064 C 261.435 164.588,261.425 164.490,260.990 164.554 C 260.694 164.597,259.077 164.693,257.396 164.767 M118.563 173.933 C 117.506 174.140,116.417 174.689,115.815 175.317 C 114.968 176.202,114.936 176.313,115.604 176.052 C 116.361 175.756,117.646 175.413,122.669 174.166 L 125.025 173.581 122.669 173.585 C 121.374 173.588,119.526 173.744,118.563 173.933 M123.594 179.971 C 123.491 180.074,122.093 180.340,120.487 180.562 C 115.988 181.183,115.215 181.385,115.846 181.777 C 116.784 182.360,123.338 181.223,124.061 180.351 C 124.480 179.846,124.061 179.505,123.594 179.971 " stroke="none" fill="#047ec6" fill-rule="evenodd"/><path id="path3" d="M192.345 16.094 L 375.859 16.290 376.056 201.570 L 376.252 386.850 376.350 201.747 C 376.426 58.193,376.342 16.538,375.976 16.173 C 375.611 15.807,334.349 15.724,192.169 15.799 L 8.832 15.897 192.345 16.094 M8.350 42.395 C 8.350 43.366,8.427 43.763,8.520 43.278 C 8.614 42.792,8.614 41.997,8.520 41.511 C 8.427 41.026,8.350 41.423,8.350 42.395 M202.472 108.602 C 197.745 109.408,194.633 113.816,194.306 120.168 C 194.078 124.607,193.680 125.613,192.154 125.613 C 191.038 125.613,189.361 126.920,188.608 128.376 C 187.823 129.895,187.748 190.578,188.531 191.590 C 189.618 192.996,190.905 193.479,192.682 193.147 C 196.150 192.500,195.956 193.613,196.106 173.563 C 196.217 158.854,196.346 155.467,196.874 153.428 C 197.921 149.389,197.657 141.420,196.384 138.598 C 195.767 137.232,196.397 133.800,197.520 132.410 C 197.986 131.832,201.774 131.326,202.915 131.689 C 203.745 131.952,203.742 131.972,202.645 133.222 C 202.033 133.918,201.288 135.097,200.989 135.841 C 200.690 136.585,200.124 137.615,199.732 138.129 C 198.318 139.985,198.870 156.452,200.428 158.876 C 202.098 161.474,210.485 162.766,212.514 160.737 C 212.812 160.439,213.528 160.077,214.107 159.932 C 215.366 159.616,216.137 158.519,216.501 156.526 C 216.731 155.271,216.923 155.051,217.806 155.037 C 218.376 155.027,219.546 154.769,220.407 154.462 C 222.283 153.794,222.911 154.192,222.255 155.632 C 221.950 156.301,221.489 156.624,220.839 156.624 C 218.815 156.624,217.888 157.293,217.624 158.946 C 217.411 160.276,217.202 160.546,216.208 160.764 C 215.428 160.935,214.886 161.392,214.570 162.143 C 214.310 162.761,213.487 163.677,212.741 164.180 C 211.994 164.683,210.973 165.838,210.471 166.747 C 209.924 167.738,209.184 168.494,208.623 168.635 C 208.108 168.764,207.332 169.471,206.899 170.205 C 206.465 170.940,205.846 171.541,205.522 171.541 C 204.699 171.541,202.250 173.768,201.935 174.803 C 201.791 175.276,201.391 175.984,201.045 176.377 C 200.230 177.304,199.749 182.729,200.224 185.648 C 201.084 190.944,202.524 192.740,206.404 193.361 L 208.047 193.623 208.047 196.269 L 208.047 198.915 206.379 199.172 C 205.461 199.313,201.915 199.539,198.498 199.675 C 192.662 199.908,192.251 199.976,191.717 200.790 C 191.272 201.469,190.620 201.713,188.705 201.917 C 187.361 202.061,183.788 202.437,180.765 202.753 C 173.689 203.494,170.458 204.207,168.665 205.424 C 166.919 206.608,166.047 206.731,154.073 207.472 C 145.318 208.013,142.147 208.378,140.437 209.040 C 139.235 209.506,138.700 206.833,137.837 196.075 C 137.699 194.347,137.427 192.687,137.232 192.385 C 136.810 191.730,135.861 183.655,135.837 180.517 C 135.820 178.438,135.724 178.219,134.226 176.866 C 133.350 176.074,132.155 174.614,131.572 173.621 C 129.849 170.688,128.870 170.162,126.131 170.696 C 124.875 170.941,122.139 171.317,120.051 171.531 C 115.637 171.984,112.151 173.166,110.573 174.744 C 109.960 175.357,109.326 175.859,109.165 175.859 C 109.003 175.859,108.443 176.316,107.919 176.874 L 106.968 177.890 107.058 187.767 C 107.157 198.490,107.650 205.554,108.516 208.636 C 109.854 213.399,110.302 223.123,109.232 224.193 C 108.976 224.449,108.748 223.001,108.562 219.945 C 108.213 214.205,107.795 213.543,104.524 213.543 C 98.653 213.543,94.458 219.582,96.929 224.477 C 97.583 225.772,98.298 226.944,98.519 227.080 C 98.740 227.216,98.923 227.980,98.927 228.777 C 98.947 233.702,100.266 235.835,104.021 237.022 L 106.570 237.828 107.750 236.916 C 109.297 235.722,111.853 233.165,112.918 231.747 C 114.167 230.084,114.318 230.578,114.703 237.582 C 114.974 242.508,115.274 244.681,116.019 247.105 C 116.549 248.832,117.338 252.703,117.772 255.706 C 118.571 261.231,119.101 262.698,121.114 264.966 C 121.594 265.505,122.198 266.611,122.457 267.422 C 123.191 269.720,123.767 269.872,131.698 269.872 C 142.155 269.872,145.961 268.919,147.233 265.982 C 147.429 265.531,147.988 264.661,148.475 264.048 L 149.362 262.935 148.343 262.086 C 147.371 261.276,147.294 260.918,146.695 254.436 C 146.241 249.522,145.853 247.180,145.296 245.996 C 144.481 244.265,143.278 236.903,143.278 233.650 C 143.278 230.962,143.918 230.502,148.633 229.802 C 150.761 229.485,153.032 229.059,153.680 228.853 C 154.328 228.648,158.016 228.207,161.876 227.873 C 165.736 227.539,169.022 227.186,169.178 227.090 C 169.335 226.993,170.769 226.714,172.366 226.470 C 174.249 226.183,175.688 225.711,176.460 225.130 C 177.551 224.307,178.203 224.211,184.311 223.970 C 193.858 223.593,198.143 223.089,199.997 222.123 C 201.232 221.480,203.213 221.155,209.344 220.588 C 219.856 219.616,222.075 219.139,223.945 217.444 C 224.627 216.825,225.967 216.678,234.151 216.322 C 239.333 216.096,243.926 215.811,244.359 215.688 C 245.388 215.396,246.909 216.803,246.909 218.047 C 246.909 218.564,247.157 220.191,247.461 221.662 C 247.764 223.134,248.221 228.754,248.477 234.151 C 249.442 254.562,249.738 255.038,261.040 254.326 C 265.695 254.033,267.499 253.763,268.719 253.175 C 269.596 252.752,271.205 252.141,272.296 251.817 C 277.345 250.318,277.638 249.290,277.477 233.644 C 277.248 211.491,277.247 211.513,278.899 212.596 C 282.581 215.008,286.583 213.642,289.013 209.142 L 290.134 207.066 289.874 200.000 C 289.557 191.387,289.214 190.341,285.727 187.332 C 283.365 185.294,283.329 185.280,280.695 185.280 C 276.618 185.280,275.962 186.685,275.951 195.441 C 275.947 198.530,275.822 199.810,275.564 199.411 C 275.355 199.087,275.178 197.056,275.171 194.897 C 275.164 192.738,274.978 189.382,274.759 187.439 C 274.540 185.496,274.196 182.404,273.995 180.569 C 273.522 176.255,272.299 171.703,271.221 170.245 C 270.561 169.352,270.300 168.246,270.059 165.312 C 269.510 158.633,266.998 155.839,261.542 155.839 C 260.817 155.839,259.720 155.467,259.106 155.013 C 257.856 154.089,254.824 153.292,250.899 152.856 L 248.283 152.566 250.405 152.142 C 253.810 151.461,255.142 148.308,254.551 142.325 C 254.221 138.977,253.963 138.428,252.419 137.788 C 251.763 137.517,251.227 137.057,251.227 136.767 C 251.227 136.059,249.000 133.558,248.122 133.279 C 247.736 133.157,247.218 132.613,246.972 132.071 C 246.725 131.530,245.946 130.746,245.240 130.330 C 244.535 129.914,243.639 129.033,243.249 128.373 C 242.860 127.714,241.884 126.839,241.081 126.429 C 240.278 126.020,239.369 125.213,239.061 124.637 C 237.085 120.946,229.000 122.064,225.731 126.481 L 224.376 128.311 223.896 126.915 C 222.495 122.838,215.303 120.094,214.723 123.414 C 214.555 124.373,214.237 124.634,212.692 125.084 C 211.568 125.412,210.469 126.084,209.846 126.824 C 208.672 128.219,208.310 127.821,208.512 125.360 L 208.636 123.847 210.991 123.651 C 212.915 123.490,213.414 123.301,213.715 122.615 C 214.046 121.861,214.462 121.759,217.785 121.613 C 221.932 121.432,222.321 121.191,222.771 118.528 C 223.122 116.449,222.785 115.646,221.202 114.794 C 220.458 114.393,219.498 113.589,219.068 113.008 C 216.872 110.038,207.945 107.667,202.472 108.602 M211.142 111.936 C 213.158 112.289,214.047 112.675,215.113 113.661 C 215.868 114.360,217.251 115.314,218.184 115.781 C 220.562 116.971,219.192 118.468,215.113 119.137 C 212.518 119.563,209.206 121.530,206.650 124.163 C 203.615 127.288,199.296 129.974,198.532 129.210 C 197.872 128.549,197.484 125.625,197.466 121.176 L 197.448 116.934 199.050 114.577 C 201.235 111.359,204.174 110.717,211.142 111.936 M236.081 125.038 C 236.747 125.399,237.860 126.621,238.556 127.755 C 239.592 129.444,240.250 130.020,242.211 130.951 C 244.379 131.981,244.733 132.329,246.005 134.684 C 247.267 137.020,247.676 137.427,250.052 138.710 L 252.695 140.138 253.162 142.513 C 253.882 146.172,253.336 147.374,250.301 148.810 C 247.285 150.237,247.455 150.248,244.912 148.442 C 243.743 147.611,241.962 146.621,240.953 146.241 C 239.578 145.723,238.992 145.241,238.612 144.315 C 238.032 142.903,234.199 139.085,232.994 138.719 C 231.791 138.354,230.815 137.365,230.815 136.511 C 230.815 136.095,230.296 134.459,229.662 132.876 L 228.510 129.998 229.933 127.119 C 231.786 123.371,232.536 123.117,236.081 125.038 M221.314 127.230 C 223.138 127.919,223.499 129.809,223.410 138.175 C 223.294 148.928,222.265 151.404,216.999 153.605 C 216.242 153.921,215.253 154.698,214.803 155.331 C 212.627 158.387,207.276 159.221,203.702 157.062 C 200.633 155.207,200.696 155.424,200.635 146.544 C 200.586 139.439,200.695 138.960,202.482 138.393 C 203.340 138.121,206.832 134.182,207.655 132.560 C 208.026 131.827,208.823 131.172,209.814 130.787 C 210.677 130.451,212.515 129.313,213.898 128.259 C 216.544 126.241,218.121 126.022,221.314 127.230 M207.228 129.971 C 206.054 130.873,205.734 130.891,205.419 130.071 C 205.051 129.109,206.361 128.271,207.380 128.817 C 208.164 129.236,208.161 129.253,207.228 129.971 M231.702 140.726 C 232.859 142.237,234.414 143.866,235.156 144.345 C 236.522 145.227,238.827 147.072,239.462 147.792 C 239.653 148.008,240.302 148.766,240.905 149.478 C 241.630 150.333,242.859 151.080,244.533 151.684 C 247.201 152.646,247.213 152.612,243.929 153.459 C 241.207 154.161,240.995 154.653,240.586 161.209 C 240.164 167.972,240.088 168.310,238.949 168.474 C 238.162 168.587,237.890 169.062,237.244 171.460 C 237.138 171.851,236.918 171.866,236.285 171.528 C 235.723 171.226,235.552 170.881,235.742 170.431 C 236.431 168.805,236.755 165.047,236.624 160.210 C 236.461 154.202,236.059 153.449,232.710 152.884 C 231.785 152.727,230.622 152.334,230.126 152.009 C 229.323 151.482,229.150 151.482,228.547 152.008 C 227.667 152.776,223.794 153.686,223.339 153.231 C 223.139 153.031,223.228 152.224,223.550 151.320 C 223.856 150.459,224.115 149.251,224.124 148.636 C 224.135 147.930,224.551 147.135,225.254 146.477 C 226.218 145.576,226.402 145.043,226.629 142.493 C 227.104 137.162,228.578 136.649,231.702 140.726 M232.514 154.702 C 234.724 155.709,234.747 167.282,232.543 168.936 C 232.006 169.338,231.074 170.751,230.471 172.076 C 229.868 173.401,228.948 174.866,228.427 175.331 C 227.905 175.796,226.804 176.769,225.979 177.492 C 224.524 178.770,224.458 178.944,223.684 183.516 C 222.274 191.857,221.925 192.152,213.543 192.091 C 205.212 192.031,203.537 190.472,203.051 182.334 L 202.838 178.756 204.274 176.757 C 205.064 175.658,205.952 174.665,206.248 174.552 C 206.544 174.438,207.237 173.392,207.788 172.226 C 208.655 170.393,209.006 170.043,210.388 169.629 C 212.554 168.980,214.361 167.302,215.593 164.796 C 216.539 162.873,216.811 162.635,219.045 161.778 C 221.097 160.991,221.641 160.569,222.581 159.031 C 225.492 154.266,228.592 152.916,232.514 154.702 M253.074 154.492 C 253.551 154.589,254.434 155.192,255.037 155.833 C 256.504 157.392,259.113 158.651,259.763 158.114 C 260.107 157.828,260.538 157.897,261.221 158.344 C 261.754 158.694,262.401 158.979,262.658 158.979 C 262.915 158.979,263.716 159.430,264.438 159.981 C 265.160 160.532,266.352 161.233,267.086 161.540 C 268.698 162.213,268.745 162.480,269.117 172.954 C 269.343 179.334,269.303 180.085,268.723 180.308 C 268.358 180.448,268.017 180.345,267.940 180.072 C 267.025 176.825,266.537 174.449,266.359 172.374 C 266.072 169.016,265.425 167.004,264.257 165.837 C 263.240 164.819,261.298 164.525,260.811 165.314 C 260.620 165.623,259.341 165.695,256.655 165.547 C 248.641 165.105,246.532 167.303,247.303 175.293 C 247.848 180.930,248.070 200.334,247.596 200.814 C 246.730 201.690,245.848 192.713,246.557 190.242 C 246.741 189.597,247.009 187.270,247.151 185.070 C 247.481 179.970,247.225 179.624,242.820 179.211 C 239.893 178.937,239.780 178.887,238.836 177.460 C 237.444 175.357,238.610 169.578,240.427 169.578 C 242.376 169.578,243.485 166.881,243.430 162.274 C 243.347 155.177,245.979 153.053,253.074 154.492 M262.792 168.400 C 263.211 168.400,263.837 172.412,264.200 177.429 C 264.691 184.220,266.075 190.818,267.280 192.114 C 267.988 192.876,268.073 193.949,268.471 207.262 C 268.909 221.902,269.532 234.627,269.887 236.217 C 270.205 237.635,268.547 240.142,267.131 240.387 C 259.770 241.658,258.082 241.072,256.924 236.841 C 256.577 235.578,256.007 233.925,255.656 233.170 C 255.164 232.111,254.943 229.768,254.693 222.964 C 254.104 206.949,253.183 193.721,252.466 190.991 C 252.242 190.137,251.953 187.399,251.823 184.906 C 251.693 182.413,251.397 178.235,251.164 175.622 C 250.568 168.940,251.156 168.152,257.115 167.638 C 259.139 167.463,260.472 167.543,261.383 167.892 C 262.111 168.172,262.745 168.400,262.792 168.400 M130.857 175.270 C 131.269 176.349,131.754 177.586,131.935 178.018 C 133.885 182.692,134.585 198.117,133.005 201.636 L 132.154 203.533 131.868 201.766 C 131.710 200.795,131.448 195.954,131.285 191.009 C 130.942 180.614,131.059 180.921,127.160 180.234 C 125.101 179.871,124.573 179.894,124.051 180.366 C 123.271 181.071,120.222 181.746,117.275 181.866 C 115.549 181.935,114.864 182.153,114.231 182.833 C 113.782 183.315,113.182 183.710,112.898 183.710 C 111.504 183.710,110.423 185.497,110.152 188.250 C 109.889 190.910,109.404 192.362,108.935 191.892 C 108.486 191.444,108.561 180.403,109.020 179.338 C 109.355 178.561,110.146 178.043,112.195 177.260 C 113.696 176.687,115.253 175.851,115.656 175.404 C 116.792 174.143,117.987 173.838,123.062 173.514 C 130.297 173.051,129.981 172.980,130.857 175.270 M233.657 175.097 C 234.033 175.840,235.005 177.079,235.816 177.851 C 236.628 178.622,237.592 179.815,237.960 180.500 C 238.667 181.817,239.394 182.243,242.100 182.926 C 243.436 183.263,243.767 183.520,243.762 184.215 C 243.751 185.812,243.332 185.950,237.684 186.221 C 234.661 186.366,231.364 186.685,230.356 186.929 C 228.005 187.500,226.297 186.647,226.849 185.179 C 227.032 184.695,227.411 183.003,227.693 181.420 C 228.143 178.884,228.363 178.421,229.541 177.522 C 230.276 176.961,231.150 175.821,231.484 174.987 C 232.194 173.212,232.717 173.239,233.657 175.097 M270.690 181.256 C 270.825 181.850,271.184 183.307,271.489 184.495 C 273.128 190.884,272.869 213.658,271.137 215.390 C 270.595 215.933,270.510 215.742,270.292 213.492 C 269.464 204.924,268.925 181.059,269.545 180.438 C 270.064 179.920,270.451 180.196,270.690 181.256 M125.646 183.246 C 125.987 183.393,127.015 184.159,127.930 184.948 L 129.592 186.382 129.948 195.546 C 130.364 206.251,130.876 211.262,131.885 214.524 C 132.286 215.819,132.908 219.865,133.267 223.513 C 133.627 227.162,134.061 230.518,134.233 230.972 C 134.404 231.425,134.676 232.767,134.838 233.955 C 135.192 236.558,135.639 237.818,136.578 238.862 C 137.142 239.489,137.377 240.872,137.745 245.731 C 137.999 249.078,138.290 252.625,138.392 253.615 C 138.643 256.055,137.991 256.573,134.041 257.068 C 132.312 257.285,130.590 257.581,130.214 257.725 C 129.290 258.079,127.171 256.418,125.625 254.127 C 124.467 252.412,124.368 251.965,123.823 245.979 C 123.505 242.496,123.156 239.293,123.047 238.862 C 122.939 238.430,122.399 236.398,121.849 234.347 C 121.298 232.296,120.698 229.117,120.516 227.282 C 119.843 220.529,118.958 216.850,117.694 215.558 L 116.537 214.374 116.170 205.421 C 115.969 200.496,115.620 194.093,115.395 191.191 C 114.990 185.956,114.994 185.908,115.884 185.039 C 117.258 183.697,123.869 182.483,125.646 183.246 M284.383 189.886 C 287.005 194.034,286.843 193.425,287.145 200.274 L 287.429 206.708 285.349 208.713 C 282.361 211.594,280.250 209.886,279.492 203.974 C 279.295 202.436,278.963 200.648,278.755 200.000 C 278.119 198.018,277.853 190.473,278.407 190.108 C 281.086 188.343,283.354 188.259,284.383 189.886 M241.830 189.721 C 243.858 190.794,244.065 191.348,244.131 195.878 C 244.186 199.665,244.652 202.127,245.400 202.589 C 246.218 203.095,246.360 208.609,245.585 209.792 C 242.695 214.203,234.957 216.027,225.796 214.456 L 224.506 214.235 224.618 211.679 L 224.730 209.122 223.160 208.553 C 221.856 208.081,218.325 208.000,202.355 208.073 C 177.446 208.187,177.964 208.201,177.654 207.393 C 177.166 206.121,180.283 205.395,192.542 203.924 C 196.416 203.459,198.616 202.993,200.000 202.344 C 202.535 201.155,205.788 200.678,214.720 200.183 C 223.991 199.670,223.749 199.773,223.749 196.327 L 223.749 193.619 226.159 192.717 C 227.485 192.221,229.351 191.140,230.305 190.314 L 232.040 188.813 236.076 188.813 C 239.538 188.813,240.356 188.942,241.830 189.721 M224.575 191.284 C 224.259 191.600,224.145 191.404,224.153 190.559 C 224.164 189.544,224.217 189.491,224.586 190.126 C 224.888 190.646,224.885 190.974,224.575 191.284 M114.751 212.169 C 114.819 220.818,114.514 223.646,113.780 221.197 C 111.832 214.705,111.611 202.895,113.398 200.843 C 114.381 199.714,114.672 202.145,114.751 212.169 M172.031 209.124 C 170.250 209.197,167.336 209.197,165.554 209.124 C 163.773 209.051,165.231 208.992,168.793 208.992 C 172.355 208.992,173.813 209.051,172.031 209.124 M137.909 219.235 C 137.779 220.746,137.541 222.336,137.381 222.767 C 136.643 224.757,136.082 213.653,136.766 210.599 C 137.285 208.282,138.234 215.456,137.909 219.235 M209.126 212.647 C 212.093 214.373,212.711 214.221,199.066 215.112 C 195.530 215.343,192.351 215.682,192.001 215.866 C 190.564 216.621,184.405 217.855,180.177 218.235 C 172.841 218.894,170.179 219.303,168.893 219.968 C 163.142 222.942,145.062 224.017,144.281 221.432 C 143.707 219.530,143.313 217.048,143.506 216.546 C 144.313 214.441,151.843 213.366,170.167 212.740 C 177.507 212.489,187.046 212.057,191.364 211.780 C 201.866 211.106,206.900 211.352,209.126 212.647 M253.349 230.156 C 253.436 236.811,253.569 242.304,253.643 242.363 C 253.717 242.422,255.140 242.960,256.803 243.558 C 261.345 245.191,266.476 244.498,272.404 241.449 C 274.184 240.533,274.499 239.341,274.817 232.307 C 275.318 221.233,275.843 223.080,275.910 236.152 L 275.957 245.219 273.700 247.365 C 271.289 249.657,269.302 250.531,265.358 251.034 C 264.171 251.186,262.404 251.640,261.433 252.043 C 260.461 252.447,258.523 252.825,257.125 252.885 L 254.584 252.993 254.110 251.573 C 253.849 250.791,253.354 248.407,253.009 246.273 C 252.664 244.140,252.088 240.805,251.728 238.862 C 250.724 233.432,250.771 217.106,251.798 214.917 L 252.535 213.346 252.863 215.702 C 253.043 216.997,253.262 223.502,253.349 230.156 M106.281 216.956 C 106.551 217.320,106.771 218.319,106.771 219.176 C 106.771 220.033,107.045 223.357,107.380 226.564 C 108.226 234.668,107.846 235.436,103.796 233.804 C 100.900 232.637,100.473 231.852,100.039 226.903 C 99.859 224.844,99.646 222.880,99.566 222.537 C 99.339 221.569,100.124 216.942,100.616 216.342 C 101.244 215.577,105.610 216.050,106.281 216.956 M212.169 216.651 C 213.753 217.011,208.385 217.861,204.524 217.861 C 201.365 217.861,199.087 217.203,200.393 216.667 C 201.331 216.283,210.493 216.270,212.169 216.651 M189.794 221.656 C 190.841 222.091,184.447 222.449,180.765 222.162 C 178.133 221.956,178.084 221.934,179.588 221.638 C 180.451 221.468,181.335 221.257,181.551 221.169 C 182.196 220.905,188.946 221.304,189.794 221.656 M117.771 228.899 C 118.765 234.292,118.678 237.829,117.520 239.109 C 116.819 239.884,116.813 239.883,116.492 239.015 C 115.618 236.652,115.685 224.141,116.572 224.141 C 116.749 224.141,117.289 226.282,117.771 228.899 M8.356 237.291 C 8.359 238.371,8.435 238.766,8.525 238.169 C 8.615 237.573,8.613 236.689,8.520 236.207 C 8.427 235.724,8.353 236.212,8.356 237.291 M140.131 242.885 C 140.127 245.248,140.007 246.136,139.745 245.731 C 139.164 244.833,139.374 239.450,139.990 239.450 C 140.071 239.450,140.135 240.996,140.131 242.885 M122.286 248.642 C 122.635 252.361,122.168 257.014,121.594 255.545 C 120.896 253.756,120.470 248.025,120.932 246.625 C 121.557 244.731,121.979 245.359,122.286 248.642 M145.072 254.019 C 145.220 254.259,145.567 256.409,145.842 258.796 C 146.529 264.754,146.190 265.506,142.532 266.138 C 141.107 266.384,139.336 266.939,138.596 267.373 C 135.339 269.282,127.645 269.224,125.424 267.275 C 121.850 264.136,122.427 259.964,126.305 260.909 C 128.406 261.422,132.950 261.216,136.847 260.433 C 138.055 260.191,141.841 256.956,143.042 255.141 C 144.105 253.536,144.603 253.260,145.072 254.019 M12.758 387.439 C 11.821 387.677,12.062 387.742,13.935 387.757 C 15.583 387.770,16.055 387.675,15.505 387.439 C 14.581 387.042,14.318 387.042,12.758 387.439 M57.507 387.434 C 48.491 387.621,49.752 387.662,65.947 387.704 C 76.418 387.731,85.957 387.639,87.144 387.498 C 89.840 387.179,71.660 387.140,57.507 387.434 M91.188 387.497 C 90.799 387.651,92.866 387.768,95.780 387.758 C 98.695 387.748,100.815 387.680,100.491 387.607 C 99.221 387.321,91.854 387.234,91.188 387.497 M107.753 387.455 C 102.968 387.627,103.992 387.682,113.216 387.749 C 119.459 387.794,124.454 387.718,124.315 387.580 C 123.988 387.252,115.208 387.186,107.753 387.455 M144.848 387.439 C 138.595 387.631,139.332 387.667,150.147 387.700 C 157.056 387.721,162.179 387.603,161.531 387.439 C 160.222 387.106,155.690 387.106,144.848 387.439 M203.533 387.439 L 183.121 387.646 206.084 387.692 C 218.714 387.717,228.518 387.603,227.870 387.439 C 227.223 387.274,226.075 387.160,225.319 387.185 C 224.563 387.211,214.760 387.325,203.533 387.439 M230.422 387.439 C 230.037 387.687,234.931 387.796,244.553 387.752 C 258.281 387.689,258.718 387.667,251.030 387.421 C 238.351 387.014,231.069 387.020,230.422 387.439 M289.892 387.438 C 284.721 387.625,285.825 387.680,296.140 387.748 C 303.031 387.794,308.595 387.767,308.505 387.689 C 308.158 387.388,295.871 387.222,289.892 387.438 M338.175 387.431 L 313.837 387.644 344.727 387.738 C 361.716 387.789,375.697 387.699,375.795 387.537 C 376.016 387.176,369.420 387.157,338.175 387.431 M20.917 387.729 C 22.166 387.807,24.110 387.807,25.235 387.728 C 26.361 387.649,25.339 387.585,22.964 387.586 C 20.589 387.586,19.668 387.651,20.917 387.729 M41.904 387.726 C 42.821 387.809,44.323 387.809,45.240 387.726 C 46.158 387.643,45.407 387.576,43.572 387.576 C 41.737 387.576,40.986 387.643,41.904 387.726 M171.835 387.726 C 172.753 387.809,174.254 387.809,175.172 387.726 C 176.089 387.643,175.339 387.576,173.503 387.576 C 171.668 387.576,170.918 387.643,171.835 387.726 M264.686 387.729 C 265.935 387.807,267.878 387.807,269.004 387.728 C 270.129 387.649,269.107 387.585,266.732 387.586 C 264.357 387.586,263.436 387.651,264.686 387.729 " stroke="none" fill="#605c41" fill-rule="evenodd"/></g></svg>
